<svg xmlns="http://www.w3.org/2000/svg" viewBox="0 0 30 30" fill="none">
  <path
    opacity="0.7"
    d="M15.3584 29.6432C15.1612 29.8404 14.8486 29.8477 14.6604 29.6594L7.84219 22.8413L15.5025 22.6593L15.5109 29.2599C15.5162 29.3961 15.4651 29.5365 15.3584 29.6432Z"
    fill="#2564dd"
  />
  <path
    d="M7.84141 22.8413C7.65313 22.653 7.6604 22.3404 7.85765 22.1432L15.4908 14.5101L29.3089 14.5231C29.4369 14.5189 29.5642 14.5641 29.6595 14.6595C29.8478 14.8477 29.8406 15.1603 29.6433 15.3575L22.179 22.8218C22.0791 22.9217 21.9497 22.9728 21.8217 22.9746L8.218 22.976C8.08139 22.9877 7.94323 22.9431 7.84141 22.8413Z"
    fill="#2564dd"
  />
  <path
    opacity="0.7"
    d="M14.6425 0.357547C14.8398 0.160303 15.1523 0.153035 15.3406 0.341313L22.1588 7.15948L14.5064 7.3414L14.4901 0.740816C14.4848 0.6046 14.5359 0.464215 14.6425 0.357547Z"
    fill="#2564dd"
  />
  <path
    d="M22.1596 7.1595C22.3478 7.34778 22.3406 7.66031 22.1433 7.85755L14.5265 15.4744L0.69203 15.4776C0.564038 15.4819 0.436796 15.4367 0.341431 15.3413C0.153152 15.153 0.160419 14.8405 0.357663 14.6433L7.82193 7.17898C7.92184 7.07908 8.05132 7.02791 8.17926 7.0262L21.783 7.02473C21.9196 7.01305 22.0577 7.05768 22.1596 7.1595Z"
    fill="#2564dd"
  />
</svg>
